<svg width="458" height="40" viewBox="0 0 458 40" fill="none" xmlns="http://www.w3.org/2000/svg">
<path d="M20 20C20 31.0457 11.0457 40 0 40V0C11.0457 0 20 8.9543 20 20Z" fill="#252525"/>
<circle cx="39.2939" cy="20" r="6" fill="#252525"/>
<circle cx="64.5884" cy="20" r="6" fill="#252525"/>
<circle cx="89.8823" cy="20" r="6" fill="#252525"/>
<circle cx="115.176" cy="20" r="6" fill="#252525"/>
<circle cx="140.471" cy="20" r="6" fill="#252525"/>
<circle cx="165.765" cy="20" r="6" fill="#252525"/>
<circle cx="191.059" cy="20" r="6" fill="#252525"/>
<circle cx="216.353" cy="20" r="6" fill="#252525"/>
<circle cx="241.647" cy="20" r="6" fill="#252525"/>
<circle cx="266.941" cy="20" r="6" fill="#252525"/>
<circle cx="292.235" cy="20" r="6" fill="#252525"/>
<circle cx="317.529" cy="20" r="6" fill="#252525"/>
<circle cx="342.824" cy="20" r="6" fill="#252525"/>
<circle cx="368.118" cy="20" r="6" fill="#252525"/>
<circle cx="393.412" cy="20" r="6" fill="#252525"/>
<circle cx="418.706" cy="20" r="6" fill="#252525"/>
<path d="M438 20C438 8.9543 446.954 -9.65645e-07 458 0L458 40C446.954 40 438 31.0457 438 20Z" fill="#252525"/>
</svg>
