<svg width="21" height="20" viewBox="0 0 21 20" fill="none" xmlns="http://www.w3.org/2000/svg">
<path d="M15.076 4.57116C14.8558 4.57635 14.6466 4.66852 14.4942 4.8275L10.5 8.82165L6.50589 4.8275C6.42814 4.74758 6.33513 4.68407 6.23239 4.64073C6.12965 4.5974 6.01925 4.57512 5.90775 4.57522C5.74204 4.57543 5.58015 4.62503 5.44277 4.71769C5.30539 4.81034 5.19874 4.94185 5.13646 5.09541C5.07418 5.24897 5.05909 5.41761 5.09312 5.57979C5.12715 5.74196 5.20875 5.89031 5.32751 6.00589L9.32165 10L5.32751 13.9942C5.24753 14.071 5.18367 14.1629 5.13969 14.2647C5.0957 14.3665 5.07246 14.476 5.07133 14.5869C5.0702 14.6977 5.09121 14.8077 5.13312 14.9104C5.17502 15.013 5.23699 15.1063 5.31539 15.1847C5.39379 15.2631 5.48704 15.325 5.58969 15.3669C5.69234 15.4089 5.80232 15.4299 5.91319 15.4287C6.02405 15.4276 6.13358 15.4044 6.23535 15.3604C6.33713 15.3164 6.4291 15.2525 6.50589 15.1726L10.5 11.1784L14.4942 15.1726C14.571 15.2525 14.6629 15.3164 14.7647 15.3604C14.8665 15.4044 14.976 15.4276 15.0869 15.4287C15.1977 15.4299 15.3077 15.4089 15.4104 15.367C15.513 15.325 15.6063 15.2631 15.6847 15.1847C15.7631 15.1063 15.825 15.013 15.8669 14.9104C15.9089 14.8077 15.9299 14.6977 15.9287 14.5869C15.9276 14.476 15.9044 14.3665 15.8604 14.2647C15.8164 14.1629 15.7525 14.071 15.6726 13.9942L11.6784 10L15.6726 6.00589C15.7938 5.88961 15.8771 5.7394 15.9115 5.57496C15.9459 5.41051 15.9298 5.23951 15.8653 5.08438C15.8008 4.92926 15.6909 4.79724 15.5501 4.70565C15.4092 4.61407 15.244 4.56719 15.076 4.57116Z" fill="#637394"/>
</svg>
