<svg width="160" height="40" viewBox="0 0 160 40" fill="none" xmlns="http://www.w3.org/2000/svg">
<g clip-path="url(#clip0_3_754)">
<path d="M31.0543 14.6012H7.02734V14.7808H31.0543V14.6012Z" fill="white"/>
<path d="M21.5334 8.13428H17.4465V8.31392H21.5334V8.13428Z" fill="white"/>
<path d="M5.4104 17.1388V21.2256H5.59004V17.1388H5.4104Z" fill="white"/>
<path d="M29.4822 19.6312V23.718H29.6618V19.6312H29.4822Z" fill="white"/>
<path d="M18.3449 32.2061H14.2581V32.3857H18.3449V32.2061Z" fill="white"/>
<path d="M11.8774 6.29283L11.8774 32.5653H12.0571L12.0571 6.29283H11.8774Z" fill="white"/>
<path d="M17.4465 8.13399V32.3855H17.6262V8.13399H17.4465Z" fill="white"/>
<path d="M28.5842 25.7389H4.01831V25.9185H28.5842V25.7389Z" fill="white"/>
<path d="M29.6619 20.1702H5.4104V20.3498H29.6619V20.1702Z" fill="white"/>
<path d="M23.0154 10.0204V32.5653H23.195V10.0204H23.0154Z" fill="white"/>
<path fill-rule="evenodd" clip-rule="evenodd" d="M23.0144 26.8169H23.1962C23.6581 29.5701 25.8311 31.7432 28.5843 32.2051V32.3868C25.8311 32.8487 23.6581 35.0218 23.1962 37.775H23.0144C22.5525 35.0218 20.3795 32.8487 17.6262 32.3868V32.2051C20.3795 31.7432 22.5525 29.5701 23.0144 26.8169Z" fill="white"/>
<path fill-rule="evenodd" clip-rule="evenodd" d="M5.40938 20.3497H5.5912C6.0531 23.103 8.22611 25.276 10.9794 25.7379V25.9197C8.22611 26.3816 6.0531 28.5546 5.5912 31.3078H5.40938C4.94747 28.5546 2.77447 26.3816 0.0212402 25.9197V25.7379C2.77447 25.276 4.94747 23.103 5.40938 20.3497Z" fill="white"/>
<path fill-rule="evenodd" clip-rule="evenodd" d="M29.4812 9.21204H29.663C30.1249 11.9653 32.2979 14.1383 35.0511 14.6002V14.782C32.2979 15.2439 30.1249 17.4169 29.663 20.1702H29.4812C29.0193 17.4169 26.8463 15.2439 24.093 14.782V14.6002C26.8463 14.1383 29.0193 11.9653 29.4812 9.21204Z" fill="white"/>
<path fill-rule="evenodd" clip-rule="evenodd" d="M11.8764 2.74475H12.0583C12.5202 5.49797 14.6932 7.67099 17.4463 8.13289V8.3147C14.6932 8.7766 12.5202 10.9497 12.0583 13.7029H11.8764C11.4145 10.9497 9.24151 8.7766 6.48828 8.3147V8.13289C9.24151 7.67099 11.4145 5.49797 11.8764 2.74475Z" fill="white"/>
<path fill-rule="evenodd" clip-rule="evenodd" d="M23.0489 4.84167H23.1612C23.4463 6.54119 24.7876 7.88256 26.4871 8.16769V8.27991C24.7876 8.56504 23.4463 9.9064 23.1612 11.6059H23.0489C22.7638 9.9064 21.4224 8.56504 19.7229 8.27991V8.16769C21.4224 7.88256 22.7638 6.54119 23.0489 4.84167Z" fill="white"/>
<path fill-rule="evenodd" clip-rule="evenodd" d="M5.44393 11.3088H5.55617C5.84129 13.0083 7.18266 14.3497 8.88217 14.6348V14.7471C7.18266 15.0322 5.84129 16.3736 5.55617 18.0731H5.44393C5.15881 16.3736 3.81745 15.0322 2.11792 14.7471V14.6348C3.81745 14.3497 5.15881 13.0083 5.44393 11.3088Z" fill="white"/>
<path fill-rule="evenodd" clip-rule="evenodd" d="M29.5163 22.4465H29.6284C29.9136 24.146 31.2549 25.4874 32.9545 25.7725V25.8848C31.2549 26.1699 29.9136 27.5113 29.6284 29.2108H29.5163C29.2311 27.5113 27.8898 26.1699 26.1902 25.8848V25.7725C27.8898 25.4874 29.2311 24.146 29.5163 22.4465Z" fill="white"/>
<path fill-rule="evenodd" clip-rule="evenodd" d="M11.9113 28.9137H12.0234C12.3086 30.6132 13.6499 31.9545 15.3494 32.2398V32.3519C13.6499 32.6371 12.3086 33.9784 12.0234 35.6779H11.9113C11.626 33.9784 10.2847 32.6371 8.58521 32.3519V32.2398C10.2847 31.9545 11.626 30.6132 11.9113 28.9137Z" fill="white"/>
</g>
<defs>
<clipPath id="clip0_3_754">
<rect width="159.957" height="39.47" fill="white" transform="translate(0.0212402)"/>
</clipPath>
</defs>
</svg>
