<?xml version="1.0" encoding="UTF-8"?>
<svg id="Layer_5" data-name="Layer 5" xmlns="http://www.w3.org/2000/svg" viewBox="0 0 1277.71 798.57">
  <defs>
    <style>
      .cls-1 {
        fill: #fff;
      }
    </style>
  </defs>
  <path class="cls-1" d="m254.47,440.51v46.75h-126.8c-.37,5.76-.63,9.78-.97,14.98h143.64v-190.6h47.66v239.18H79.49v-110.31h174.98Z"/>
  <path class="cls-1" d="m79.74,247.74h45.81v174.91h-45.81v-174.91Z"/>
  <path class="cls-1" d="m416.05,414.4v101.94c-6.53-.62-13.32.5-18.24-2.03-19.71-10.1-39.05-20.99-58.1-32.29-8.72-5.18-7.47-30.54,1.48-35.47,18.18-10.01,36.42-19.94,55.08-28.98,5.43-2.63,12.39-2.1,19.78-3.18Z"/>
  <path class="cls-1" d="m142.7,423.04v-47.11h47.01v47.11h-47.01Z"/>
  <path class="cls-1" d="m207.29,375.04h46.41v47.6h-46.41v-47.6Z"/>
  <g>
    <path class="cls-1" d="m465.9,543.02v-98.08h20.61v8.39c4.43-5.59,11.26-8.39,20.48-8.39s16.72,3.49,23.16,10.47c6.44,6.89,9.67,15.48,9.67,25.78s-3.22,18.86-9.67,25.85c-6.44,6.94-14.16,10.41-23.16,10.41s-16.04-2.8-20.48-8.39v23.83l-20.61,10.14Zm36.99-45.04c9.49,0,14.92-5.59,16.31-16.78,0-10.34-5.44-15.93-16.31-16.78-9.53,0-14.99,5.59-16.38,16.78,0,10.34,5.46,15.93,16.38,16.78Z"/>
    <path class="cls-1" d="m615.8,515.63h-20.61v-40.88c0-8.37-3.83-12.55-11.48-12.55h-.47c-7.56,0-11.81,4.72-12.75,14.16v39.27h-20.61v-97.94l20.61,10.14v23.83c4.03-5.59,10.58-8.39,19.67-8.39,6.98,0,12.98,2.42,17.99,7.25,5.1,4.83,7.65,11.9,7.65,21.21v43.9Z"/>
    <path class="cls-1" d="m638.29,439.17c-1.75,0-3.37-.32-4.87-.97-1.5-.65-2.81-1.53-3.93-2.65-1.12-1.12-2-2.43-2.65-3.93-.65-1.5-.97-3.12-.97-4.87s.32-3.3.97-4.8c.65-1.5,1.54-2.81,2.68-3.93,1.14-1.12,2.46-2,3.96-2.65,1.5-.65,3.1-.97,4.8-.97s3.29.33,4.77.97c1.48.65,2.79,1.54,3.93,2.69,1.14,1.14,2.04,2.45,2.69,3.93.65,1.48.97,3.07.97,4.77s-.32,3.3-.97,4.8c-.65,1.5-1.53,2.82-2.65,3.96-1.12,1.14-2.43,2.04-3.93,2.68-1.5.65-3.1.97-4.8.97Zm10.27,76.46h-20.61v-70.42h20.61v70.42Z"/>
    <path class="cls-1" d="m763.75,515.56h-20.61v-40.41c0-6.94-3.29-10.7-9.87-11.28-6.89,0-10.47,4.32-10.74,12.96v38.73h-20.61v-40.41c0-6.94-3.29-10.7-9.87-11.28-6.89,0-10.47,4.32-10.74,12.96v38.73h-20.61v-70.62h20.61v8.26c3.09-5.5,9.22-8.26,18.39-8.26,8.19,0,14.19,3.02,17.99,9.06,3.58-6.04,10.23-9.06,19.94-9.06,15.8,0,24.5,9.47,26.11,28.4v42.22Z"/>
    <path class="cls-1" d="m839.74,515.63h-20.61v-40.88c0-8.37-3.83-12.55-11.48-12.55h-.47c-7.56,0-11.81,4.72-12.75,14.16v39.27h-20.61v-97.94l20.61,10.14v23.83c4.03-5.59,10.58-8.39,19.67-8.39,6.98,0,12.98,2.42,17.99,7.25,5.1,4.83,7.65,11.9,7.65,21.21v43.9Z"/>
    <path class="cls-1" d="m882.71,515.76c-9.04,0-16.78-3.47-23.23-10.41-6.44-6.98-9.67-15.6-9.67-25.85s3.22-18.89,9.67-25.78c6.44-6.98,14.19-10.47,23.23-10.47s15.98,2.8,20.41,8.39v-8.39h20.61v72.37h-20.61v-8.19c-4.43,5.55-11.23,8.32-20.41,8.32Zm4.1-19.47c9.49,0,14.92-5.59,16.31-16.78,0-10.29-5.44-15.86-16.31-16.72-9.49,0-14.95,5.57-16.38,16.72,0,10.34,5.46,15.93,16.38,16.78Z"/>
    <path class="cls-1" d="m947.76,543.22c-.63,0-1.26-.01-1.91-.03-.65-.02-1.29-.06-1.91-.1v-19.27c9.62,0,15.35-3.8,17.19-11.41l-27.32-65.52h22.62l15.31,42.02,12.89-42.02h21.95l-23.5,66.66c-6.76,19.78-18.53,29.67-35.31,29.67Z"/>
    <path class="cls-1" d="m1065.43,515.56h-23.36l-25.44-68.67h22.82l14.3,43.57,14.3-43.57h22.76l-25.38,68.67Z"/>
    <path class="cls-1" d="m1122.36,515.76c-9.04,0-16.78-3.47-23.23-10.41-6.44-6.98-9.67-15.6-9.67-25.85s3.22-18.89,9.67-25.78c6.44-6.98,14.19-10.47,23.23-10.47s15.98,2.8,20.41,8.39v-8.39h20.61v72.37h-20.61v-8.19c-4.43,5.55-11.23,8.32-20.41,8.32Zm4.1-19.47c9.49,0,14.92-5.59,16.31-16.78,0-10.29-5.44-15.86-16.31-16.72-9.49,0-14.95,5.57-16.38,16.72,0,10.34,5.46,15.93,16.38,16.78Z"/>
    <path class="cls-1" d="m1185.87,439.17c-1.75,0-3.37-.32-4.87-.97-1.5-.65-2.81-1.53-3.93-2.65-1.12-1.12-2-2.43-2.65-3.93-.65-1.5-.97-3.12-.97-4.87s.32-3.3.97-4.8c.65-1.5,1.54-2.81,2.68-3.93,1.14-1.12,2.46-2,3.96-2.65,1.5-.65,3.1-.97,4.8-.97s3.29.33,4.77.97c1.48.65,2.79,1.54,3.93,2.69,1.14,1.14,2.04,2.45,2.69,3.93.65,1.48.97,3.07.97,4.77s-.32,3.3-.97,4.8c-.65,1.5-1.53,2.82-2.65,3.96-1.12,1.14-2.43,2.04-3.93,2.68-1.5.65-3.1.97-4.8.97Zm10.27,76.46h-20.61v-70.42h20.61v70.42Z"/>
  </g>
</svg>