<svg width="40" height="40" viewBox="0 0 40 40" fill="none" xmlns="http://www.w3.org/2000/svg">
<g clip-path="url(#clip0_263_2148)">
<path d="M23.3334 21.6667C21.9445 21.6667 20.764 21.1806 19.7917 20.2084C18.8195 19.2361 18.3334 18.0556 18.3334 16.6667C18.3334 15.2778 18.8195 14.0972 19.7917 13.125C20.764 12.1528 21.9445 11.6667 23.3334 11.6667C24.7223 11.6667 25.9029 12.1528 26.8751 13.125C27.8473 14.0972 28.3334 15.2778 28.3334 16.6667C28.3334 18.0556 27.8473 19.2361 26.8751 20.2084C25.9029 21.1806 24.7223 21.6667 23.3334 21.6667ZM11.6667 26.6667C10.7501 26.6667 9.96536 26.3403 9.31258 25.6875C8.6598 25.0347 8.33342 24.25 8.33342 23.3334V10C8.33342 9.08335 8.6598 8.29863 9.31258 7.64585C9.96536 6.99308 10.7501 6.66669 11.6667 6.66669H35.0001C35.9167 6.66669 36.7015 6.99308 37.3542 7.64585C38.007 8.29863 38.3334 9.08335 38.3334 10V23.3334C38.3334 24.25 38.007 25.0347 37.3542 25.6875C36.7015 26.3403 35.9167 26.6667 35.0001 26.6667H11.6667ZM15.0001 23.3334H31.6667C31.6667 22.4167 31.9931 21.632 32.6459 20.9792C33.2987 20.3264 34.0834 20 35.0001 20V13.3334C34.0834 13.3334 33.2987 13.007 32.6459 12.3542C31.9931 11.7014 31.6667 10.9167 31.6667 10H15.0001C15.0001 10.9167 14.6737 11.7014 14.0209 12.3542C13.3681 13.007 12.5834 13.3334 11.6667 13.3334V20C12.5834 20 13.3681 20.3264 14.0209 20.9792C14.6737 21.632 15.0001 22.4167 15.0001 23.3334ZM33.3334 33.3334H5.00008C4.08341 33.3334 3.29869 33.007 2.64591 32.3542C1.99314 31.7014 1.66675 30.9167 1.66675 30V11.6667H5.00008V30H33.3334V33.3334Z" fill="white"/>
</g>
<defs>
<clipPath id="clip0_263_2148">
<rect width="40" height="40" fill="white"/>
</clipPath>
</defs>
</svg>
