<svg width="21" height="22" viewBox="0 0 21 22" fill="none" xmlns="http://www.w3.org/2000/svg">
<path d="M9.37941 5.70312L14.2544 10.2031C14.4888 10.3906 14.6294 10.7188 14.6294 11C14.6294 11.3281 14.4888 11.6562 14.2544 11.8438L9.37941 16.3438C9.05128 16.6719 8.58253 16.7188 8.16066 16.5312C7.73878 16.3906 7.50441 15.9688 7.50441 15.5V6.5C7.50441 6.07812 7.73878 5.65625 8.16066 5.46875C8.58253 5.32812 9.05128 5.375 9.37941 5.70312ZM18.0044 0.5C19.645 0.5 21.0044 1.85938 21.0044 3.5V18.5C21.0044 20.1875 19.645 21.5 18.0044 21.5H3.00441C1.31691 21.5 0.00440598 20.1875 0.00440598 18.5V3.5C0.00440598 1.85938 1.31691 0.5 3.00441 0.5H18.0044ZM18.7544 18.5V3.5C18.7544 3.125 18.3794 2.75 18.0044 2.75H3.00441C2.58253 2.75 2.25441 3.125 2.25441 3.5V18.5C2.25441 18.9219 2.58253 19.25 3.00441 19.25H18.0044C18.3794 19.25 18.7544 18.9219 18.7544 18.5Z" fill="#FB1F60"/>
</svg>
