<svg width="37" height="27" viewBox="0 0 37 27" fill="none" xmlns="http://www.w3.org/2000/svg">
<path d="M5 5C5 3.61111 5.48611 2.43056 6.45833 1.45833C7.43056 0.486111 8.61111 0 10 0H26.6667C28.0556 0 29.2361 0.486111 30.2083 1.45833C31.1806 2.43056 31.6667 3.61111 31.6667 5V8.33333C33.0556 8.33333 34.2361 8.81944 35.2083 9.79167C36.1806 10.7639 36.6667 11.9444 36.6667 13.3333V21.6667C36.6667 23.0556 36.1806 24.2361 35.2083 25.2083C34.2361 26.1806 33.0556 26.6667 31.6667 26.6667H5C3.61111 26.6667 2.43056 26.1806 1.45833 25.2083C0.486111 24.2361 0 23.0556 0 21.6667V13.3333C0 11.9444 0.486111 10.7639 1.45833 9.79167C2.43056 8.81944 3.61111 8.33333 5 8.33333V5ZM8.33333 5V9.66667C8.83333 10.1389 9.23611 10.6806 9.54167 11.2917C9.84722 11.9028 10 12.5833 10 13.3333V16.6667H26.6667V13.3333C26.6667 12.5833 26.8194 11.9028 27.125 11.2917C27.4306 10.6806 27.8333 10.1389 28.3333 9.66667V5C28.3333 4.52778 28.1736 4.13194 27.8542 3.8125C27.5347 3.49306 27.1389 3.33333 26.6667 3.33333H10C9.52778 3.33333 9.13194 3.49306 8.8125 3.8125C8.49306 4.13194 8.33333 4.52778 8.33333 5ZM30 20H6.66667V13.3333C6.66667 13.1111 6.625 12.8958 6.54167 12.6875C6.45833 12.4792 6.34028 12.2986 6.1875 12.1458C6.03472 11.9931 5.85417 11.875 5.64583 11.7917C5.4375 11.7083 5.22222 11.6667 5 11.6667C4.52778 11.6667 4.13194 11.8264 3.8125 12.1458C3.49306 12.4653 3.33333 12.8611 3.33333 13.3333V21.6667C3.33333 22.1389 3.49306 22.5347 3.8125 22.8542C4.13194 23.1736 4.52778 23.3333 5 23.3333H31.6667C32.1389 23.3333 32.5347 23.1736 32.8542 22.8542C33.1736 22.5347 33.3333 22.1389 33.3333 21.6667V13.3333C33.3333 12.8611 33.1736 12.4653 32.8542 12.1458C32.5347 11.8264 32.1389 11.6667 31.6667 11.6667C31.4444 11.6667 31.2292 11.7083 31.0208 11.7917C30.8125 11.875 30.6319 11.9931 30.4792 12.1458C30.3264 12.2986 30.2083 12.4792 30.125 12.6875C30.0417 12.8958 30 13.1111 30 13.3333V20Z" fill="url(#paint0_linear_249_2319)"/>
<defs>
<linearGradient id="paint0_linear_249_2319" x1="18.3333" y1="0" x2="18.3333" y2="26.6667" gradientUnits="userSpaceOnUse">
<stop stop-color="#FB1F60"/>
<stop offset="1" stop-color="#FF81A6"/>
</linearGradient>
</defs>
</svg>
