<svg width="37" height="27" viewBox="0 0 37 27" fill="none" xmlns="http://www.w3.org/2000/svg">
<path d="M5.33325 5C5.33325 3.61111 5.81936 2.43056 6.79159 1.45833C7.76381 0.486111 8.94436 0 10.3333 0H26.9999C28.3888 0 29.5694 0.486111 30.5416 1.45833C31.5138 2.43056 31.9999 3.61111 31.9999 5V8.33333C33.3888 8.33333 34.5694 8.81944 35.5416 9.79167C36.5138 10.7639 36.9999 11.9444 36.9999 13.3333V21.6667C36.9999 23.0556 36.5138 24.2361 35.5416 25.2083C34.5694 26.1806 33.3888 26.6667 31.9999 26.6667H5.33325C3.94436 26.6667 2.76381 26.1806 1.79159 25.2083C0.819363 24.2361 0.333252 23.0556 0.333252 21.6667V13.3333C0.333252 11.9444 0.819363 10.7639 1.79159 9.79167C2.76381 8.81944 3.94436 8.33333 5.33325 8.33333V5ZM8.66659 5V9.66667C9.16659 10.1389 9.56936 10.6806 9.87492 11.2917C10.1805 11.9028 10.3333 12.5833 10.3333 13.3333V16.6667H26.9999V13.3333C26.9999 12.5833 27.1527 11.9028 27.4583 11.2917C27.7638 10.6806 28.1666 10.1389 28.6666 9.66667V5C28.6666 4.52778 28.5069 4.13194 28.1874 3.8125C27.868 3.49306 27.4721 3.33333 26.9999 3.33333H10.3333C9.86103 3.33333 9.4652 3.49306 9.14575 3.8125C8.82631 4.13194 8.66659 4.52778 8.66659 5ZM30.3333 20H6.99992V13.3333C6.99992 13.1111 6.95825 12.8958 6.87492 12.6875C6.79159 12.4792 6.67353 12.2986 6.52075 12.1458C6.36797 11.9931 6.18742 11.875 5.97909 11.7917C5.77075 11.7083 5.55547 11.6667 5.33325 11.6667C4.86103 11.6667 4.4652 11.8264 4.14575 12.1458C3.82631 12.4653 3.66659 12.8611 3.66659 13.3333V21.6667C3.66659 22.1389 3.82631 22.5347 4.14575 22.8542C4.4652 23.1736 4.86103 23.3333 5.33325 23.3333H31.9999C32.4721 23.3333 32.868 23.1736 33.1874 22.8542C33.5069 22.5347 33.6666 22.1389 33.6666 21.6667V13.3333C33.6666 12.8611 33.5069 12.4653 33.1874 12.1458C32.868 11.8264 32.4721 11.6667 31.9999 11.6667C31.7777 11.6667 31.5624 11.7083 31.3541 11.7917C31.1458 11.875 30.9652 11.9931 30.8124 12.1458C30.6596 12.2986 30.5416 12.4792 30.4583 12.6875C30.3749 12.8958 30.3333 13.1111 30.3333 13.3333V20Z" fill="#1F293D"/>
<path d="M23.4806 4.5C23.2603 4.5052 23.0511 4.59736 22.8987 4.75635L18.9045 8.75049L14.9104 4.75635C14.8327 4.67642 14.7397 4.61291 14.6369 4.56958C14.5342 4.52624 14.4238 4.50397 14.3123 4.50407C14.1466 4.50427 13.9847 4.55387 13.8473 4.64653C13.7099 4.73919 13.6033 4.87069 13.541 5.02425C13.4787 5.17781 13.4636 5.34645 13.4976 5.50863C13.5317 5.67081 13.6133 5.81916 13.732 5.93473L17.7262 9.92888L13.732 13.923C13.652 13.9998 13.5882 14.0918 13.5442 14.1936C13.5002 14.2953 13.477 14.4049 13.4759 14.5157C13.4747 14.6266 13.4957 14.7366 13.5376 14.8392C13.5795 14.9419 13.6415 15.0351 13.7199 15.1135C13.7983 15.1919 13.8916 15.2539 13.9942 15.2958C14.0969 15.3377 14.2068 15.3587 14.3177 15.3576C14.4286 15.3565 14.5381 15.3332 14.6399 15.2892C14.7416 15.2452 14.8336 15.1814 14.9104 15.1014L18.9045 11.1073L22.8987 15.1014C22.9755 15.1814 23.0675 15.2452 23.1692 15.2892C23.271 15.3332 23.3805 15.3565 23.4914 15.3576C23.6023 15.3587 23.7122 15.3377 23.8149 15.2958C23.9175 15.2539 24.0108 15.1919 24.0892 15.1135C24.1676 15.0351 24.2296 14.9419 24.2715 14.8392C24.3134 14.7366 24.3344 14.6266 24.3333 14.5157C24.3321 14.4049 24.3089 14.2953 24.2649 14.1936C24.2209 14.0918 24.1571 13.9998 24.0771 13.923L20.0829 9.92888L24.0771 5.93473C24.1983 5.81846 24.2816 5.66825 24.316 5.5038C24.3504 5.33936 24.3343 5.16836 24.2698 5.01323C24.2053 4.8581 24.0954 4.72609 23.9546 4.6345C23.8138 4.54291 23.6485 4.49603 23.4806 4.5Z" fill="white"/>
</svg>
