<svg width="40" height="148" viewBox="0 0 40 148" fill="none" xmlns="http://www.w3.org/2000/svg">
<path d="M20 128C31.0457 128 40 136.954 40 148L0 148C-4.82823e-07 136.954 8.9543 128 20 128Z" fill="#252525"/>
<circle cx="20" cy="110" r="6" transform="rotate(-90 20 110)" fill="#252525"/>
<circle cx="20" cy="86" r="6" transform="rotate(-90 20 86)" fill="#252525"/>
<circle cx="20" cy="62" r="6" transform="rotate(-90 20 62)" fill="#252525"/>
<circle cx="20" cy="38" r="6" transform="rotate(-90 20 38)" fill="#252525"/>
<path d="M20 20C8.9543 20 -4.82823e-07 11.0457 0 -1.74846e-06L40 0C40 11.0457 31.0457 20 20 20Z" fill="#252525"/>
</svg>
