<svg width="38" height="27" viewBox="0 0 38 27" fill="none" xmlns="http://www.w3.org/2000/svg">
<path d="M5.66675 5C5.66675 3.61111 6.15286 2.43056 7.12508 1.45833C8.0973 0.486111 9.27786 0 10.6667 0H27.3334C28.7223 0 29.9029 0.486111 30.8751 1.45833C31.8473 2.43056 32.3334 3.61111 32.3334 5V8.33333C33.7223 8.33333 34.9029 8.81944 35.8751 9.79167C36.8473 10.7639 37.3334 11.9444 37.3334 13.3333V21.6667C37.3334 23.0556 36.8473 24.2361 35.8751 25.2083C34.9029 26.1806 33.7223 26.6667 32.3334 26.6667H5.66675C4.27786 26.6667 3.0973 26.1806 2.12508 25.2083C1.15286 24.2361 0.666748 23.0556 0.666748 21.6667V13.3333C0.666748 11.9444 1.15286 10.7639 2.12508 9.79167C3.0973 8.81944 4.27786 8.33333 5.66675 8.33333V5ZM9.00008 5V9.66667C9.50008 10.1389 9.90286 10.6806 10.2084 11.2917C10.514 11.9028 10.6667 12.5833 10.6667 13.3333V16.6667H27.3334V13.3333C27.3334 12.5833 27.4862 11.9028 27.7917 11.2917C28.0973 10.6806 28.5001 10.1389 29.0001 9.66667V5C29.0001 4.52778 28.8404 4.13194 28.5209 3.8125C28.2015 3.49306 27.8056 3.33333 27.3334 3.33333H10.6667C10.1945 3.33333 9.79869 3.49306 9.47925 3.8125C9.1598 4.13194 9.00008 4.52778 9.00008 5ZM30.6667 20H7.33342V13.3333C7.33342 13.1111 7.29175 12.8958 7.20842 12.6875C7.12508 12.4792 7.00703 12.2986 6.85425 12.1458C6.70147 11.9931 6.52092 11.875 6.31258 11.7917C6.10425 11.7083 5.88897 11.6667 5.66675 11.6667C5.19453 11.6667 4.79869 11.8264 4.47925 12.1458C4.1598 12.4653 4.00008 12.8611 4.00008 13.3333V21.6667C4.00008 22.1389 4.1598 22.5347 4.47925 22.8542C4.79869 23.1736 5.19453 23.3333 5.66675 23.3333H32.3334C32.8056 23.3333 33.2015 23.1736 33.5209 22.8542C33.8404 22.5347 34.0001 22.1389 34.0001 21.6667V13.3333C34.0001 12.8611 33.8404 12.4653 33.5209 12.1458C33.2015 11.8264 32.8056 11.6667 32.3334 11.6667C32.1112 11.6667 31.8959 11.7083 31.6876 11.7917C31.4792 11.875 31.2987 11.9931 31.1459 12.1458C30.9931 12.2986 30.8751 12.4792 30.7917 12.6875C30.7084 12.8958 30.6667 13.1111 30.6667 13.3333V20Z" fill="#253554"/>
</svg>
