<svg width="34" height="34" viewBox="0 0 34 34" fill="none" xmlns="http://www.w3.org/2000/svg">
<path d="M6.74992 25.5C8.16658 24.4167 9.74992 23.5625 11.4999 22.9375C13.2499 22.3125 15.0833 22 16.9999 22C18.9166 22 20.7499 22.3125 22.4999 22.9375C24.2499 23.5625 25.8333 24.4167 27.2499 25.5C28.2221 24.3612 28.9791 23.0695 29.5208 21.625C30.0624 20.1806 30.3333 18.6389 30.3333 17C30.3333 13.3056 29.0346 10.1598 26.4374 7.56254C23.8402 4.96532 20.6944 3.66671 16.9999 3.66671C13.3055 3.66671 10.1596 4.96532 7.56242 7.56254C4.9652 10.1598 3.66658 13.3056 3.66658 17C3.66658 18.6389 3.93742 20.1806 4.47908 21.625C5.02075 23.0695 5.7777 24.3612 6.74992 25.5ZM16.9999 18.6667C15.361 18.6667 13.9791 18.1042 12.8541 16.9792C11.7291 15.8542 11.1666 14.4723 11.1666 12.8334C11.1666 11.1945 11.7291 9.81254 12.8541 8.68754C13.9791 7.56254 15.361 7.00004 16.9999 7.00004C18.6388 7.00004 20.0208 7.56254 21.1458 8.68754C22.2708 9.81254 22.8333 11.1945 22.8333 12.8334C22.8333 14.4723 22.2708 15.8542 21.1458 16.9792C20.0208 18.1042 18.6388 18.6667 16.9999 18.6667ZM16.9999 33.6667C14.6944 33.6667 12.5277 33.2292 10.4999 32.3542C8.47214 31.4792 6.70825 30.2917 5.20825 28.7917C3.70825 27.2917 2.52075 25.5278 1.64575 23.5C0.770752 21.4723 0.333252 19.3056 0.333252 17C0.333252 14.6945 0.770752 12.5278 1.64575 10.5C2.52075 8.47226 3.70825 6.70837 5.20825 5.20837C6.70825 3.70837 8.47214 2.52087 10.4999 1.64587C12.5277 0.770874 14.6944 0.333374 16.9999 0.333374C19.3055 0.333374 21.4721 0.770874 23.4999 1.64587C25.5277 2.52087 27.2916 3.70837 28.7916 5.20837C30.2916 6.70837 31.4791 8.47226 32.3541 10.5C33.2291 12.5278 33.6666 14.6945 33.6666 17C33.6666 19.3056 33.2291 21.4723 32.3541 23.5C31.4791 25.5278 30.2916 27.2917 28.7916 28.7917C27.2916 30.2917 25.5277 31.4792 23.4999 32.3542C21.4721 33.2292 19.3055 33.6667 16.9999 33.6667ZM16.9999 30.3334C18.4721 30.3334 19.861 30.1181 21.1666 29.6875C22.4721 29.257 23.6666 28.6389 24.7499 27.8334C23.6666 27.0278 22.4721 26.4098 21.1666 25.9792C19.861 25.5487 18.4721 25.3334 16.9999 25.3334C15.5277 25.3334 14.1388 25.5487 12.8333 25.9792C11.5277 26.4098 10.3333 27.0278 9.24992 27.8334C10.3333 28.6389 11.5277 29.257 12.8333 29.6875C14.1388 30.1181 15.5277 30.3334 16.9999 30.3334ZM16.9999 15.3334C17.7221 15.3334 18.3194 15.0973 18.7916 14.625C19.2638 14.1528 19.4999 13.5556 19.4999 12.8334C19.4999 12.1112 19.2638 11.5139 18.7916 11.0417C18.3194 10.5695 17.7221 10.3334 16.9999 10.3334C16.2777 10.3334 15.6805 10.5695 15.2083 11.0417C14.736 11.5139 14.4999 12.1112 14.4999 12.8334C14.4999 13.5556 14.736 14.1528 15.2083 14.625C15.6805 15.0973 16.2777 15.3334 16.9999 15.3334Z" fill="white"/>
</svg>
