<svg width="40" height="40" viewBox="0 0 40 40" fill="none" xmlns="http://www.w3.org/2000/svg">
<path d="M6.66658 28.3334V31.6667H33.3333V28.3334H6.66658ZM6.66658 10H10.3333C10.1944 9.75004 10.1041 9.48615 10.0624 9.20837C10.0208 8.9306 9.99992 8.63893 9.99992 8.33337C9.99992 6.94448 10.486 5.76393 11.4583 4.79171C12.4305 3.81949 13.611 3.33337 14.9999 3.33337C15.8333 3.33337 16.6041 3.54865 17.3124 3.97921C18.0208 4.40976 18.6388 4.94449 19.1666 5.58337L19.9999 6.66671L20.8333 5.58337C21.3333 4.91671 21.9444 4.37504 22.6666 3.95837C23.3888 3.54171 24.1666 3.33337 24.9999 3.33337C26.3888 3.33337 27.5694 3.81949 28.5416 4.79171C29.5138 5.76393 29.9999 6.94448 29.9999 8.33337C29.9999 8.63893 29.9791 8.9306 29.9374 9.20837C29.8958 9.48615 29.8055 9.75004 29.6666 10H33.3333C34.2499 10 35.0346 10.3264 35.6874 10.9792C36.3402 11.632 36.6666 12.4167 36.6666 13.3334V31.6667C36.6666 32.5834 36.3402 33.3681 35.6874 34.0209C35.0346 34.6737 34.2499 35 33.3333 35H6.66658C5.74992 35 4.9652 34.6737 4.31242 34.0209C3.65964 33.3681 3.33325 32.5834 3.33325 31.6667V13.3334C3.33325 12.4167 3.65964 11.632 4.31242 10.9792C4.9652 10.3264 5.74992 10 6.66658 10ZM6.66658 23.3334H33.3333V13.3334H24.8333L28.3333 18.0834L25.6666 20L19.9999 12.3334L14.3333 20L11.6666 18.0834L15.0833 13.3334H6.66658V23.3334ZM14.9999 10C15.4721 10 15.868 9.84032 16.1874 9.52087C16.5069 9.20143 16.6666 8.8056 16.6666 8.33337C16.6666 7.86115 16.5069 7.46532 16.1874 7.14587C15.868 6.82643 15.4721 6.66671 14.9999 6.66671C14.5277 6.66671 14.1319 6.82643 13.8124 7.14587C13.493 7.46532 13.3333 7.86115 13.3333 8.33337C13.3333 8.8056 13.493 9.20143 13.8124 9.52087C14.1319 9.84032 14.5277 10 14.9999 10ZM24.9999 10C25.4721 10 25.868 9.84032 26.1874 9.52087C26.5069 9.20143 26.6666 8.8056 26.6666 8.33337C26.6666 7.86115 26.5069 7.46532 26.1874 7.14587C25.868 6.82643 25.4721 6.66671 24.9999 6.66671C24.5277 6.66671 24.1319 6.82643 23.8124 7.14587C23.493 7.46532 23.3333 7.86115 23.3333 8.33337C23.3333 8.8056 23.493 9.20143 23.8124 9.52087C24.1319 9.84032 24.5277 10 24.9999 10Z" fill="white"/>
</svg>
